<svg xmlns="http://www.w3.org/2000/svg" width="164" height="43" fill="none" viewBox="0 0 164 43"><g clip-path="url(#clip0_2_183)"><path fill="#292f36" d="M34.797 42.776H7.98A7.98 7.98 0 0 1 0 34.797V7.98A7.98 7.98 0 0 1 7.979 0h26.818a7.98 7.98 0 0 1 7.979 7.979v26.818a7.98 7.98 0 0 1-7.979 7.979"/><path fill="#fff" d="M29.094 21.782c.763.956 1.15 2.07 1.15 3.33 0 1.852-.617 3.305-1.852 4.334s-3.002 1.562-5.303 1.562H13.04V9.396h9.807c2.204 0 3.9.484 5.098 1.44 1.199.957 1.804 2.325 1.804 4.093 0 1.307-.35 2.385-1.041 3.257-.69.871-1.598 1.428-2.724 1.695 1.32.314 2.349.944 3.111 1.9m-10.836-3.548h3.426q2.725 0 2.725-2.325c0-1.55-.932-2.324-2.785-2.324h-3.366Zm6.635 6.15q0-1.162-.763-1.815c-.508-.436-1.235-.654-2.167-.654H18.27v4.855H22c1.924-.012 2.893-.8 2.893-2.385"/><path fill="#292f36" d="m67.56 31.008-4.673-8.161H61.7v8.16h-5.23V9.396h8.923c1.706 0 3.16.291 4.334.884 1.186.594 2.07 1.405 2.663 2.434s.884 2.204.884 3.535c0 1.574-.436 2.906-1.296 4.008-.871 1.102-2.118 1.852-3.777 2.264l5.134 8.5H67.56ZM61.7 19.275h3.233q1.562 0 2.288-.69c.485-.46.739-1.138.739-2.034 0-.86-.254-1.525-.75-2.022-.497-.484-1.26-.738-2.277-.738H61.7Z"/><path fill="#292f36" d="M96.933 27.073h-8.1L87.49 31.02h-5.497l7.919-21.455h6.017l7.919 21.455h-5.558Zm-1.344-3.984-2.688-7.942-2.724 7.942Z"/><path fill="#292f36" d="M132.699 31.008h-5.231l-8.741-13.27v13.27h-5.231V9.396h5.231l8.741 13.39V9.396h5.231Z"/><path fill="#292f36" d="M162.023 25.801c-.908 1.635-2.215 2.918-3.91 3.838-1.708.92-3.705 1.38-6.006 1.38h-8.16V9.408h8.16c2.325 0 4.335.448 6.018 1.344 1.695.896 2.99 2.156 3.898 3.79.908 1.635 1.356 3.5 1.356 5.63 0 2.107-.46 3.983-1.356 5.63m-5.63-1.09c1.126-1.077 1.695-2.603 1.695-4.552 0-1.961-.569-3.475-1.695-4.552-1.126-1.078-2.712-1.623-4.758-1.623h-2.47v12.35h2.47c2.046 0 3.632-.533 4.758-1.623"/></g><defs><clipPath id="clip0_2_183"><path fill="#fff" d="M0 0h164v43H0Z"/></clipPath></defs></svg>