<svg xmlns="http://www.w3.org/2000/svg" width="117" height="48" fill="none" viewBox="0 0 117 48"><g fill="#292f36" clip-path="url(#clip0_2_203)"><path d="M0 29.206V0h17.2v29.191H0Zm15.117-6.795.442-3.226-1.598-.157-.486 2.484c-1 .5-2.227.742-3.697.742-1.998 0-3.583-.628-4.74-1.899-1.17-1.27-1.74-2.94-1.74-5.024 0-2.027.57-3.697 1.698-5.01Q6.688 8.35 9.45 8.35c.942 0 1.741.114 2.384.328s1.227.5 1.784.87l.471 2.456 1.627-.157-.47-3.226c-.686-.585-1.5-1.056-2.442-1.428-.942-.356-2.112-.542-3.497-.542-1.642 0-3.055.4-4.24 1.213a8.3 8.3 0 0 0-2.77 3.212 9.7 9.7 0 0 0-.985 4.325c.001 2.441.758 4.482 2.27 6.11 1.514 1.627 3.484 2.44 5.925 2.44q3.597 0 5.61-1.541"/><path d="M23.04 29.206V0h7.394v29.191H23.04Zm.784-5.51h5.838v-1.47H27.65V5.924h-3.854v1.47h2.041v14.831h-2.013Z"/><path d="M36.272 29.206V0h12.99v29.191h-12.99Zm2.355-16.13-.414 2.654 1.499.186.442-1.984c.643-.314 1.37-.471 2.227-.471 1.028 0 1.727.257 2.084.77.357.515.528 1.185.528 2.013v1.028a19 19 0 0 0-1-.071c-.356-.015-.698-.029-1.04-.029a9.8 9.8 0 0 0-3.654.685c-1.143.457-1.714 1.414-1.714 2.855 0 1.228.385 2.07 1.17 2.527.786.471 1.556.7 2.313.7.928 0 1.727-.243 2.384-.729.656-.485 1.17-1.027 1.541-1.656v.057c.029 1.557.728 2.327 2.099 2.327q.792 0 1.499-.385l-.029-1.185c-.228.1-.485.157-.77.157q-.986 0-.986-1.242v-5.467q0-3.855-4.11-3.854-1.136 0-2.142.257a6.9 6.9 0 0 0-1.927.857m6.352 6.309c-.071.942-.457 1.698-1.156 2.24-.7.558-1.442.829-2.241.829-.5 0-.985-.143-1.442-.414-.47-.271-.7-.785-.7-1.527 0-.9.358-1.47 1.043-1.742.7-.271 1.47-.4 2.34-.4.386 0 .757.015 1.114.057.357.029.714.057 1.028.072v.885Z"/><path d="M55.114 29.206V0h11.805v29.191H55.114Zm10.563-8.836c0-.914-.243-1.585-.728-2.027s-1.07-.742-1.784-.914a29 29 0 0 0-2.113-.428c-.7-.114-1.299-.3-1.784-.543q-.728-.363-.728-1.284c0-.585.228-1.014.7-1.3.47-.285 1.056-.413 1.784-.413.842 0 1.627.185 2.355.57l.285 1.857 1.5-.186-.286-2.684c-.486-.3-1.07-.542-1.77-.742s-1.442-.314-2.241-.314a5.9 5.9 0 0 0-2.926.757c-.9.5-1.342 1.356-1.342 2.583q0 1.35.728 1.97c.485.428 1.084.714 1.812.885s1.442.314 2.156.443c.714.114 1.313.314 1.798.57.486.258.728.7.728 1.342q0 .985-.942 1.456c-.628.315-1.341.472-2.155.472-.914 0-1.77-.186-2.555-.571l.071-1.528-1.442-.157-.357 2.612c.5.329 1.157.6 1.956.814a9.3 9.3 0 0 0 2.412.328c1.385 0 2.541-.314 3.47-.956.927-.614 1.398-1.499 1.398-2.612"/><path d="M72.757 29.206V0h11.805v29.191H72.757ZM83.32 20.37c0-.914-.242-1.585-.728-2.027-.485-.443-1.07-.742-1.784-.914a29 29 0 0 0-2.113-.428c-.699-.114-1.298-.3-1.784-.543q-.728-.363-.728-1.284c0-.585.228-1.014.7-1.3.47-.285 1.056-.413 1.784-.413.842 0 1.627.185 2.355.57l.286 1.857 1.499-.186-.286-2.684c-.485-.3-1.07-.542-1.77-.742s-1.442-.314-2.241-.314a5.9 5.9 0 0 0-2.926.757c-.9.5-1.342 1.356-1.342 2.583q0 1.35.728 1.97c.485.428 1.085.714 1.813.885a41 41 0 0 0 2.155.442c.714.115 1.313.315 1.799.572s.728.7.728 1.342q0 .984-.942 1.455c-.628.315-1.342.472-2.156.472-.913 0-1.77-.186-2.555-.571l.072-1.528-1.442-.157-.357 2.612c.5.329 1.156.6 1.955.814a9.3 9.3 0 0 0 2.412.328c1.386 0 2.542-.314 3.47-.956.927-.614 1.398-1.499 1.398-2.612"/><path d="M90.4 29.206V0h7.78v29.191H90.4Zm1.143-5.51h5.838v-1.47h-2.013v-10.02H91.5v1.47h2.07v8.55h-2.013v1.47ZM93.37 6.88v2.355h1.97V6.88Z"/><path d="M104.019 29.206V0h12.433v29.191h-12.433Zm11.319-9.379-1.556-.342c-.342 1.941-1.384 2.912-3.097 2.912q-1.713 0-2.612-1.156c-.6-.771-.9-1.856-.9-3.226 0-1.242.271-2.299.8-3.184.528-.885 1.413-1.313 2.64-1.313.943 0 1.77.214 2.456.642l.442 1.942 1.499-.186-.443-2.77c-.585-.442-1.199-.756-1.841-.927a8.1 8.1 0 0 0-2.098-.257c-1.785 0-3.141.628-4.026 1.884-.899 1.256-1.342 2.684-1.342 4.268 0 1.842.471 3.284 1.428 4.297.942 1.028 2.212 1.542 3.797 1.542s2.755-.443 3.497-1.314c.743-.885 1.199-1.813 1.356-2.812"/><path d="M7.437 45.15a3.4 3.4 0 0 1-1.442 1.399c-.642.328-1.399.5-2.284.5H1.156v-8.05h2.555c.885-.001 1.656.156 2.284.484.628.329 1.114.785 1.442 1.4.328.613.485 1.313.485 2.14 0 .814-.157 1.528-.485 2.127m-1.413.157c.557-.542.828-1.299.828-2.284s-.271-1.741-.828-2.284-1.356-.813-2.413-.813H2.17v6.195h1.442c1.057 0 1.856-.271 2.413-.814"/><path d="M13.218 39.84v2.755h3.055v.8h-3.055v2.812h3.397v.842h-4.44v-8.05h4.44v.842Z"/><path d="M25.637 46.021c-.185.328-.457.6-.828.8-.37.2-.828.314-1.384.314-.529 0-1.014-.1-1.428-.286a2.64 2.64 0 0 1-1-.8 2.4 2.4 0 0 1-.428-1.156h1.113c.03.229.101.457.23.671.128.215.328.4.57.543q.364.214.9.214c.456 0 .813-.114 1.056-.371s.371-.557.371-.942c0-.329-.085-.6-.257-.8a1.9 1.9 0 0 0-.628-.485c-.242-.114-.6-.243-1.028-.386a13 13 0 0 1-1.228-.471 1.96 1.96 0 0 1-.785-.67c-.213-.3-.328-.686-.328-1.171q0-.621.3-1.113c.2-.314.485-.571.87-.743.372-.17.829-.257 1.328-.257.786 0 1.428.186 1.885.571.47.386.728.871.813 1.47h-1.113c-.057-.313-.229-.599-.485-.842-.272-.242-.628-.37-1.085-.37-.414 0-.757.114-1 .328-.256.214-.37.528-.37.913 0 .314.085.571.242.757.171.2.371.342.614.457.243.114.585.228.999.37.514.172.928.329 1.256.486.314.157.585.385.8.685.214.3.328.714.328 1.228a2.5 2.5 0 0 1-.3 1.056"/><path d="M31.204 38.998v8.05h-1.042v-8.05Z"/><path d="M41.739 39.612c.642.471 1.07 1.099 1.284 1.898h-1.1a2.4 2.4 0 0 0-.956-1.17c-.442-.3-.97-.443-1.584-.443-.542 0-1.042.129-1.47.386a2.8 2.8 0 0 0-1.028 1.085c-.242.47-.37 1.027-.37 1.67 0 .656.128 1.227.37 1.699.243.47.6.842 1.042 1.099q.664.385 1.542.385c.5 0 .942-.114 1.356-.314a2.74 2.74 0 0 0 1.014-.928c.27-.4.414-.885.47-1.427H39.14v-.77h4.04v.956a4.1 4.1 0 0 1-.6 1.742c-.327.527-.77.927-1.327 1.226-.556.3-1.184.457-1.898.457q-1.156 0-2.056-.514a3.5 3.5 0 0 1-1.385-1.456c-.328-.614-.499-1.327-.499-2.127s.171-1.513.5-2.127c.328-.613.799-1.113 1.384-1.456.586-.342 1.27-.528 2.041-.528.971-.028 1.756.2 2.399.657"/><path d="M53.715 47.049h-1.042l-4.182-6.367v6.366h-1.042v-8.05h1.042l4.182 6.366v-6.366h1.042Z"/><path d="M68.732 46.021c-.186.328-.457.6-.828.8s-.828.314-1.385.314a3.5 3.5 0 0 1-1.427-.285 2.64 2.64 0 0 1-1-.8 2.4 2.4 0 0 1-.428-1.156h1.113c.03.228.1.456.23.67.128.215.328.4.57.543q.364.214.9.214c.456 0 .813-.114 1.056-.371.242-.257.37-.557.37-.942 0-.329-.085-.6-.256-.8a1.9 1.9 0 0 0-.628-.485c-.243-.114-.6-.243-1.028-.386a13 13 0 0 1-1.228-.471 1.97 1.97 0 0 1-.785-.67c-.214-.3-.328-.686-.328-1.171q0-.621.3-1.113c.2-.314.485-.571.87-.743.372-.17.829-.257 1.328-.257.785 0 1.428.186 1.884.571.472.386.728.871.814 1.47h-1.114c-.056-.313-.228-.599-.485-.842-.27-.242-.628-.37-1.085-.37-.413 0-.756.114-.999.328-.257.214-.37.528-.37.913 0 .314.085.571.242.757.171.2.37.342.614.457.242.114.585.228.999.37.514.172.928.329 1.256.486.314.157.585.385.8.685.213.3.328.714.328 1.228a2.5 2.5 0 0 1-.3 1.056"/><path d="M78.196 38.998v.842h-2.27v7.209H74.87V39.84H72.6v-.842Z"/><path d="M83.05 38.998v4.825c0 .785.17 1.37.528 1.755.356.372.827.572 1.456.572.613 0 1.084-.186 1.427-.572.343-.385.514-.956.514-1.74v-4.825h1.042v4.825c0 1.098-.271 1.926-.814 2.468-.542.557-1.27.829-2.184.829-.9 0-1.627-.272-2.17-.828-.542-.557-.813-1.37-.813-2.47v-4.825h1.013Z"/><path d="M98.766 45.15a3.4 3.4 0 0 1-1.442 1.399c-.642.328-1.399.5-2.284.5h-2.555v-8.05h2.555c.885-.001 1.656.156 2.284.484.628.329 1.113.785 1.442 1.4.328.613.485 1.313.485 2.14 0 .814-.157 1.528-.485 2.127m-1.4.157c.557-.542.829-1.299.829-2.284s-.272-1.741-.828-2.284c-.557-.542-1.356-.813-2.413-.813h-1.442v6.195h1.442c1.042 0 1.856-.271 2.413-.814"/><path d="M104.561 38.998v8.05h-1.042v-8.05Z"/><path d="M114.782 39.426a3.8 3.8 0 0 1 1.413 1.47c.342.629.514 1.343.514 2.128s-.172 1.498-.514 2.127a3.8 3.8 0 0 1-1.413 1.47c-.6.357-1.271.528-2.013.528s-1.428-.171-2.027-.528a3.8 3.8 0 0 1-1.428-1.47c-.342-.629-.513-1.342-.513-2.127s.171-1.5.513-2.127a3.73 3.73 0 0 1 1.428-1.47 3.94 3.94 0 0 1 2.027-.528c.742 0 1.413.17 2.013.527m-3.512.828a2.56 2.56 0 0 0-1.028 1.1c-.242.47-.371 1.027-.371 1.67 0 .628.129 1.184.371 1.67.243.485.585.842 1.028 1.099s.928.385 1.485.385c.542 0 1.042-.128 1.484-.385a2.64 2.64 0 0 0 1.028-1.1c.243-.47.371-1.027.371-1.655 0-.642-.128-1.2-.371-1.67a2.64 2.64 0 0 0-1.028-1.1 2.9 2.9 0 0 0-1.484-.385 2.77 2.77 0 0 0-1.485.371"/></g><defs><clipPath id="clip0_2_203"><path fill="#fff" d="M0 0h117v48H0Z"/></clipPath></defs></svg>