<svg aria-hidden="true" style="width:0;height:0;position:absolute;overflow:hidden" xmlns="http://www.w3.org/2000/svg"><defs><symbol id="icon-email" viewBox="0 0 24 24"><path d="M20.016 8.016V6L12 11.016 3.984 6v2.016L12 12.985zm0-4.032q.797 0 1.383.609t.586 1.406v12q0 .797-.586 1.406t-1.383.609H3.985q-.797 0-1.383-.609t-.586-1.406v-12q0-.797.586-1.406t1.383-.609h16.031z"/></symbol><symbol id="icon-person" viewBox="0 0 24 24"><path d="M12 14.016q2.531 0 5.273 1.102t2.742 2.883v2.016H3.984v-2.016q0-1.781 2.742-2.883t5.273-1.102zM12 12q-1.641 0-2.813-1.172T8.015 8.015t1.172-2.836T12 3.984t2.813 1.195 1.172 2.836-1.172 2.813T12 12z"/></symbol><symbol id="icon-close" viewBox="0 0 20 20"><path d="M10 8.586 2.929 1.515 1.515 2.929 8.586 10l-7.071 7.071 1.414 1.414L10 11.414l7.071 7.071 1.414-1.414L11.414 10l7.071-7.071-1.414-1.414L10 8.586z"/></symbol></defs></svg>