<svg xmlns="http://www.w3.org/2000/svg" width="177" height="50" fill="none" viewBox="0 0 177 50"><path fill="#292f36" d="M44.88 39v-.4l.8-.32q.8-.28 1.04-.76.28-.48.28-1.28V15.36q0-.8-.24-1.28t-1.08-.76l-.8-.32v-.4h10.28v.4l-.8.32q-.8.28-1.08.76-.24.48-.24 1.28v20.88q0 .8.24 1.28.28.44 1.08.76l.8.32v.4Zm11.951 0v-.4l.56-.16q1.4-.4 1.4-1.96V23.96q0-.88-.28-1.28-.279-.44-1.08-.6l-.6-.16v-.4l6.84-2.32.4.4.32 2.4a12.6 12.6 0 0 1 3.16-2.04q1.761-.8 3.48-.8 2.64 0 4.04 1.44 1.44 1.44 1.44 4.4v11.52q0 1.56 1.52 1.96l.36.12v.4h-9.44v-.4l.52-.16q1.4-.44 1.4-1.96V23.72q0-2.56-2.56-2.56-1.76 0-3.84 1.76v13.6q0 1.56 1.4 1.96l.36.12v.4Zm30.53.6q-2.56 0-4-1.28-1.4-1.28-1.4-4.08V20.56H79.2v-.4l.96-.16q1.24-.28 2.12-.8a8.4 8.4 0 0 0 1.8-1.4l3.28-3.64h.4l-.12 5.6h4.48v.8H87.6v14.4q0 1.4.6 2.12.64.72 1.6.72.84 0 1.48-.4.64-.44 1.28-1.16l.4.4a5.9 5.9 0 0 1-2.2 2.16q-1.4.8-3.4.8m16.776-20.44q2.6 0 4.44 1.08a6.93 6.93 0 0 1 2.8 2.88q1 1.8 1 4.12 0 .44-.04.92a3.6 3.6 0 0 1-.16.8h-11.92q.04 4.32 1.52 6.24 1.52 1.88 4.48 1.88 2 0 3.24-.64t2.32-1.88l.4.36q-1.24 2.2-3.32 3.44-2.04 1.24-4.92 1.24-2.84 0-5.04-1.2-2.2-1.24-3.44-3.52t-1.24-5.44q0-3.28 1.44-5.56 1.44-2.32 3.68-3.52 2.28-1.2 4.76-1.2m-.12.8q-1.16 0-2 .72-.8.68-1.28 2.48-.44 1.76-.48 5h6.84q.4-4.36-.32-6.28t-2.76-1.92M114.37 39v-.4l.6-.16q.801-.24 1.08-.72.32-.48.32-1.24V23.96q0-.88-.32-1.28-.279-.44-1.08-.6l-.6-.16v-.4l6.88-2.32.4.4.36 3.44v.32a8.4 8.4 0 0 1 1.44-2.04 8.5 8.5 0 0 1 2-1.56q1.12-.6 2.2-.6 1.52 0 2.32.84t.8 2.12q0 1.36-.8 2.12-.76.72-1.84.72-1.68 0-2.96-1.68l-.08-.08q-.4-.56-.92-.6-.519-.08-.96.48a3.3 3.3 0 0 0-.68.88q-.24.48-.48 1.12v11.16q0 1.6 1.4 2l1.28.36v.4Zm17.657 0v-.4l.56-.16q1.4-.4 1.4-1.96V23.96q0-.88-.28-1.28-.28-.44-1.08-.6l-.6-.16v-.4l6.84-2.32.4.4.32 2.4a12.6 12.6 0 0 1 3.16-2.04q1.76-.8 3.48-.8 2.64 0 4.04 1.44 1.44 1.44 1.44 4.4v11.52q0 1.56 1.52 1.96l.36.12v.4h-9.44v-.4l.52-.16q1.4-.44 1.4-1.96V23.72q0-2.56-2.56-2.56-1.761 0-3.84 1.76v13.6q0 1.56 1.4 1.96l.36.12v.4Zm33.245.6q-3.04 0-5.28-1.24-2.241-1.28-3.48-3.6-1.2-2.32-1.2-5.44t1.28-5.4q1.32-2.28 3.56-3.52 2.28-1.24 5.12-1.24t5.08 1.24q2.24 1.2 3.52 3.48 1.32 2.28 1.32 5.44t-1.24 5.48a8.68 8.68 0 0 1-3.44 3.56q-2.2 1.24-5.24 1.24m0-.8q1.4 0 2.24-.8t1.2-2.84q.4-2.04.4-5.76 0-3.76-.4-5.8-.36-2.04-1.2-2.84t-2.24-.8-2.28.8q-.84.8-1.24 2.84-.36 2.04-.36 5.8 0 3.72.36 5.76.4 2.04 1.24 2.84.879.8 2.28.8"/><path fill="#cda274" d="M0 42h13.459V32.5a3.644 3.644 0 0 1 3.645-3.645 3.644 3.644 0 0 1 3.645 3.645V42h13.25V8C15.22 8-.002 23.221-.002 42"/></svg>