<svg xmlns="http://www.w3.org/2000/svg" width="132" height="43" fill="none" viewBox="0 0 132 43"><g fill="#292f36" clip-path="url(#clip0_2_144)"><path d="M11.634 0v.186l-.771.185v8.222l.77.186v.186H7.98v-.186l.771-.186V1.584L5.724 9.093H5.34L1.413 1.584v6.809l1.028.386v.186H0v-.186l1.027-.386V.371L.257.186V0h1.599c.242 0 .456.029.628.086a1.6 1.6 0 0 1 .828.571c.1.128.185.285.27.442l2.799 5.353L8.52 1.1a1.8 1.8 0 0 1 .243-.471c.086-.128.2-.243.329-.343q.192-.149.471-.214C9.75.03 9.978 0 10.264 0Z"/><path d="M16.202 2.384c.528 0 1.013.071 1.427.228s.77.386 1.07.671c.3.3.514.657.671 1.07.157.415.229.9.229 1.428s-.072 1.014-.229 1.428a3.2 3.2 0 0 1-.67 1.07c-.3.3-.657.514-1.071.671s-.9.228-1.428.228-1.013-.07-1.427-.228a3.2 3.2 0 0 1-1.07-.67c-.3-.3-.514-.657-.671-1.071s-.229-.9-.229-1.428.072-1.013.229-1.427a3.2 3.2 0 0 1 .67-1.07c.3-.3.657-.515 1.071-.672s.885-.228 1.428-.228m0 6.552a.8.8 0 0 0 .443-.143c.142-.1.27-.257.384-.5.115-.242.215-.556.286-.956.071-.414.114-.928.114-1.542 0-.628-.043-1.142-.114-1.541s-.171-.728-.286-.957c-.114-.228-.242-.4-.385-.5a.74.74 0 0 0-.443-.143.8.8 0 0 0-.442.143c-.143.1-.271.258-.385.5a3.8 3.8 0 0 0-.285.956 9 9 0 0 0-.114 1.542c-.001.628.042 1.142.113 1.542s.171.728.286.956c.114.229.242.4.385.5a.86.86 0 0 0 .442.143"/><path d="M25.837 0q1.156 0 1.156 1.156v7.451l.771.186v.186h-1.156c-.314 0-.557-.043-.742-.143a1.6 1.6 0 0 1-.443-.328 1.4 1.4 0 0 1-.285-.485 2.2 2.2 0 0 1-.428.585 2.5 2.5 0 0 1-.585.4c-.244.128-.53.185-.858.185q-.555 0-1.027-.214a2.14 2.14 0 0 1-.828-.642 3.2 3.2 0 0 1-.557-1.056c-.143-.43-.2-.915-.2-1.486 0-.57.072-1.056.2-1.484.143-.428.328-.77.585-1.056.243-.286.543-.5.885-.643a3 3 0 0 1 1.156-.214c.229 0 .429.029.614.071.186.058.343.115.472.186.157.071.285.157.4.257V.414l-.772-.186V.042h1.642Zm-.9 3.283c-.1-.1-.185-.185-.3-.257-.099-.071-.199-.128-.313-.185a.76.76 0 0 0-.357-.071.9.9 0 0 0-.457.128c-.143.085-.257.228-.371.442-.1.214-.186.528-.243.914-.057.4-.085.9-.085 1.527 0 .614.028 1.1.085 1.485s.129.685.229.899c.085.214.185.371.314.443a.65.65 0 0 0 .343.114c.2 0 .37-.057.513-.157s.257-.229.357-.357q.171-.235.3-.514v-4.41Z"/><path d="M32.06 9.193c-1.099 0-1.955-.3-2.555-.9-.613-.599-.913-1.441-.913-2.497 0-.529.071-1.014.228-1.428q.235-.62.643-1.07c.27-.3.6-.514.999-.671a3.4 3.4 0 0 1 1.285-.228c.485 0 .913.07 1.284.199.386.143.7.328.97.557.272.228.472.5.615.813.142.314.214.643.214 1 0 .114 0 .228-.014.314-.015.085-.029.17-.043.242-.029.086-.043.157-.072.214-.37.072-.77.143-1.199.186q-.535.086-1.242.128a24 24 0 0 1-1.47.057c0 .529.043.971.114 1.328s.186.642.314.842c.143.214.3.357.486.443.185.085.4.128.614.128.256 0 .5-.043.727-.142a1.87 1.87 0 0 0 .985-.914c.1-.2.143-.4.143-.614h.314c0 .257-.057.5-.171.742a2 2 0 0 1-.5.642 2.5 2.5 0 0 1-.77.443c-.286.129-.614.186-.986.186M30.777 5.78c.285 0 .542 0 .77-.014.229-.014.415-.029.572-.043.185-.014.328-.043.456-.057.015-.086.043-.186.058-.285.014-.1.028-.2.042-.314.015-.115.015-.243.015-.372 0-.385-.029-.713-.086-.97a2.2 2.2 0 0 0-.228-.642c-.086-.158-.186-.286-.315-.343-.128-.057-.228-.1-.342-.1a.57.57 0 0 0-.343.128c-.114.086-.214.243-.314.457a4.5 4.5 0 0 0-.228.956c-.057.414-.057.943-.057 1.6"/><path d="M40.226 2.826c-.257 0-.486.058-.686.158s-.37.228-.514.356a3.6 3.6 0 0 0-.414.514v4.753l.771.186v.186h-3.597v-.186l.771-.185V2.955l-.77-.186v-.186h1.156c.3 0 .542.058.742.158.185.1.342.214.456.328.129.143.229.3.286.471a2.7 2.7 0 0 1 .471-.514 3 3 0 0 1 .6-.357c.242-.114.513-.157.842-.157.456 0 .8.115 1.027.314.229.215.329.514.329.9 0 .285-.086.528-.257.7-.172.17-.414.256-.7.256h-.2c-.07 0-.114-.014-.157-.014-.057-.014-.114-.014-.157-.043Z"/><path d="M47.22 4.497c0-.286-.029-.543-.086-.757a1.4 1.4 0 0 0-.228-.514.7.7 0 0 0-.314-.3.8.8 0 0 0-.343-.1c-.2 0-.37.058-.514.157-.142.1-.27.229-.356.357a3 3 0 0 0-.285.514v4.753l.77.186v.186h-3.597v-.186l.77-.185V2.955l-.77-.186v-.186h1.156c.3 0 .542.058.742.158.186.1.343.214.457.328.129.143.228.3.286.471a2.5 2.5 0 0 1 .428-.585 2.7 2.7 0 0 1 .57-.4c.23-.128.529-.185.872-.185.37 0 .713.057 1.013.185a2.5 2.5 0 0 1 .785.471c.214.2.386.414.514.671s.186.514.186.785v4.111l.77.186v.186h-1.67q-1.156 0-1.156-1.157Z"/><path d="M1.356 18v-.528h9.92V18l-2.083.528v10.777h7.48V18.529L14.587 18v-.528h9.92V18l-2.083.528v22.268l2.084.529v.528h-9.92v-.542l2.083-.529V30.176h-7.48v10.606l2.085.528v.528h-9.92v-.528l2.083-.528V18.514Z"/><path d="M36.842 23.91c1.442 0 2.727.214 3.869.628a7.8 7.8 0 0 1 2.898 1.827c.799.8 1.413 1.77 1.827 2.912s.628 2.427.628 3.868-.214 2.727-.628 3.869a7.8 7.8 0 0 1-1.827 2.898c-.8.799-1.77 1.413-2.898 1.827-1.142.414-2.427.628-3.869.628s-2.726-.214-3.868-.628a7.8 7.8 0 0 1-2.898-1.827c-.8-.8-1.413-1.77-1.827-2.898-.414-1.142-.628-2.427-.628-3.869s.214-2.726.628-3.868a7.95 7.95 0 0 1 1.827-2.912c.8-.814 1.77-1.413 2.898-1.827 1.142-.414 2.427-.628 3.868-.628m0 17.743c.4 0 .786-.128 1.185-.385s.742-.7 1.056-1.342q.472-.964.771-2.612.3-1.65.3-4.197 0-2.549-.3-4.197-.3-1.649-.77-2.612c-.315-.642-.671-1.085-1.057-1.342s-.785-.385-1.185-.385-.785.128-1.184.385c-.4.257-.743.7-1.057 1.342q-.47.963-.77 2.612t-.3 4.197q0 2.548.3 4.197t.77 2.612c.314.642.671 1.085 1.057 1.342.4.257.785.385 1.184.385"/><path d="M72.144 29.648c0-.828-.072-1.541-.215-2.098-.142-.557-.314-1.028-.542-1.385s-.471-.614-.728-.785c-.271-.157-.528-.243-.785-.243-.443 0-.828.143-1.17.429a5.6 5.6 0 0 0-.885.956 8 8 0 0 0-.728 1.385v12.876l2.098.527v.528h-9.735v-.528l2.084-.528V29.648c0-.828-.072-1.541-.214-2.098s-.315-1.028-.543-1.385-.471-.614-.728-.785c-.271-.157-.528-.243-.785-.243-.443 0-.828.143-1.17.429a5.6 5.6 0 0 0-.885.956 7 7 0 0 0-.728 1.385v12.876l2.084.527v.528h-9.735v-.528l2.083-.528V25.48l-2.084-.528v-.528h3.126c.814 0 1.485.143 1.999.414.528.27.928.585 1.242.899q.514.6.77 1.285a6.8 6.8 0 0 1 1.113-1.57c.4-.4.886-.757 1.457-1.085.585-.329 1.285-.486 2.127-.486 1.384 0 2.598.314 3.597.928 1.014.614 1.784 1.413 2.313 2.384.3-.6.67-1.142 1.113-1.642.4-.414.885-.799 1.456-1.142.585-.342 1.285-.528 2.127-.528.956 0 1.813.157 2.612.457.785.3 1.47.714 2.041 1.242a5.6 5.6 0 0 1 1.328 1.827q.47 1.05.47 2.227v11.134l2.085.528v.528h-4.525q-3.126 0-3.126-3.126v-9.05Z"/><path d="M91.286 42.352c-2.97 0-5.282-.813-6.923-2.455-1.642-1.641-2.47-3.883-2.47-6.766 0-1.442.214-2.726.628-3.868a8.6 8.6 0 0 1 1.742-2.912 7.24 7.24 0 0 1 2.698-1.827c1.056-.414 2.212-.629 3.454-.629 1.299 0 2.47.186 3.497.557 1.028.371 1.913.87 2.627 1.499a6.6 6.6 0 0 1 1.656 2.213 6.4 6.4 0 0 1 .571 2.698c0 .328-.015.613-.058.856-.042.243-.07.457-.128.642-.071.229-.129.428-.171.586a41 41 0 0 1-3.24.528c-.971.142-2.099.257-3.37.37-1.27.1-2.612.158-3.996.158 0 1.442.1 2.64.314 3.597s.5 1.727.87 2.298c.372.571.814.97 1.328 1.214.514.242 1.07.37 1.67.37q1.05 0 1.97-.385a5.3 5.3 0 0 0 1.599-1.028 5.1 5.1 0 0 0 1.085-1.456c.27-.542.4-1.099.4-1.655h.87q0 1.05-.47 2.012a5.2 5.2 0 0 1-1.342 1.727c-.586.5-1.271.9-2.085 1.2-.828.3-1.741.456-2.726.456m-3.483-9.22c.785 0 1.484-.015 2.084-.058s1.113-.071 1.527-.114c.486-.043.9-.1 1.256-.172q.064-.342.172-.77c.043-.257.085-.543.114-.857.028-.314.057-.642.057-.985 0-1.042-.086-1.912-.243-2.626s-.37-1.285-.614-1.727c-.242-.443-.528-.757-.827-.943-.314-.185-.629-.285-.928-.285-.3 0-.614.114-.928.328-.314.229-.585.643-.828 1.256-.243.614-.443 1.485-.614 2.598-.143 1.114-.228 2.57-.228 4.354"/><path d="M115.852 41.482V27.364l-12.476-9.878v23.996Z"/><path d="M131.283 41.482V27.364l-12.276-9.878v23.996Z"/></g><defs><clipPath id="clip0_2_144"><path fill="#fff" d="M0 0h132v43H0Z"/></clipPath></defs></svg>