<svg xmlns="http://www.w3.org/2000/svg" width="145" height="45" fill="none" viewBox="0 0 145 45"><g fill="#292f36" clip-path="url(#clip0_2_190)"><path d="m20.241 8.829 1.07-.229c.272 0 .5.058.657.172s.243.228.243.328-.028.257-.071.443c-.043.185-.443 2.098-1.185 5.71a777 777 0 0 0-1.627 8.08c1.656-2.257 3.597-5.026 5.81-8.323s3.511-5.482 3.882-6.567c.114-.342.271-.6.457-.785s.357-.3.5-.328a3.5 3.5 0 0 1 .67-.057c.3 0 .657.071 1.071.2.414.128.628.342.628.656 0 .571-.856 2.242-2.555 4.982s-3.654 5.653-5.853 8.736-4.025 5.525-5.495 7.323c-.257.314-.586.485-.957.485a4 4 0 0 1-1.185-.2c-.413-.128-.628-.356-.628-.699 0-1.07.943-6.238 2.827-15.474-1.613 2.085-3.569 4.997-5.867 8.722-2.398 3.854-3.754 6.252-4.068 7.166-.172.557-.371.885-.6.97-.157.072-.328.1-.5.1l-1.156.13c-.228 0-.428-.058-.628-.187-.185-.128-.285-.256-.285-.4 0-.385.542-1.555 1.613-3.496s2.34-4.054 3.782-6.338a121 121 0 0 1 4.51-6.652c1.571-2.156 2.785-3.612 3.641-4.34a.85.85 0 0 1 .6-.228Z"/><path d="M37.4 18.507c.742 0 1.113.257 1.113.757 0 .271-.057.47-.186.6-.128.128-.4.542-.813 1.27-.414.713-.871 1.627-1.37 2.755-.5 1.113-.829 2.07-.971 2.855-.029.1-.043.228-.043.414 0 .542.142.799.442.799s.642-.143 1.042-.414c.4-.285.757-.571 1.07-.9.315-.313.615-.642.914-.97.3-.328.471-.528.529-.57a.42.42 0 0 1 .257-.071q.278-.002.342.427c.043.285.057.57.057.885 0 .314-.028.514-.086.628-.285.557-.899 1.228-1.87 2.013-.956.785-1.84 1.17-2.626 1.17s-1.37-.242-1.727-.713c-.357-.472-.557-1.014-.557-1.585 0-.585.1-1.085.3-1.527a13 13 0 0 1-2.784 2.684c-1.056.727-1.898 1.098-2.57 1.098-.67 0-1.198-.2-1.626-.6-.543-.499-.8-1.184-.8-2.069s.2-1.77.6-2.67a9.7 9.7 0 0 1 1.556-2.44 15 15 0 0 1 2.127-2.013c1.613-1.27 3.111-1.898 4.482-1.898q.792 0 1.285.256c.328.172.542.4.628.657.228-.357.428-.57.6-.67.128-.115.37-.158.684-.158m-1.942 1.627q-2.505 0-5.182 2.784a13.2 13.2 0 0 0-1.756 2.384c-.542.928-.799 1.556-.799 1.898q0 .514.3.514c.271 0 1.028-.542 2.284-1.613s2.084-1.87 2.484-2.384c.456-.57 1.341-1.77 2.669-3.582"/><path d="m48.505 10.77.6.143c.085 0 .17.043.228.128.071.086.1.172.1.243s-.1.286-.314.628c-.214.343-.443.728-.728 1.156-.286.429-.428.671-.443.714a25 25 0 0 1 1.613-.086c.314 0 .528.03.657.072.114.043.257.171.4.371.157.2.285.357.414.457.128.1.185.257.185.457s-.128.385-.371.513a1.95 1.95 0 0 1-.8.257c-2.269.229-3.51.343-3.74.357-.784 1.214-1.898 3.098-3.311 5.653s-2.17 4.168-2.255 4.81c-.043.3-.058.529-.058.714 0 .386.2.571.6.571s.842-.157 1.328-.457a11 11 0 0 0 1.342-1c1.099-.97 1.684-1.469 1.755-1.469.257 0 .386.443.386 1.313 0 .471-.215.9-.657 1.285-.985.842-1.813 1.484-2.484 1.913-.67.428-1.342.642-2.027.642-.143 0-.285-.014-.414-.043q-1.178-.214-1.713-.856c-.37-.428-.542-1-.542-1.713s.214-1.599.642-2.627a33 33 0 0 1 1.599-3.283 115 115 0 0 1 3.155-5.324l-.557.071c-1.128.129-1.784.186-1.97.186h-.128q-.429 0-.814-.172c-.257-.114-.4-.256-.4-.413 0-.172.072-.329.214-.486s.229-.285.257-.371c.072-.214.329-.457.771-.714.443-.257.77-.4 1-.414l.656-.043c.214-.014.443-.014.7-.028s.456-.014.599-.029l1.313-.057c.814-1.227 1.385-2.027 1.685-2.37.314-.356.485-.542.528-.57.043-.029.142-.057.3-.057Z"/><path d="M57.284 25.03q.278 0 .342.429c.043.285.057.57.057.885 0 .314-.028.514-.085.628-.286.543-.9 1.213-1.856 1.998-.956.786-1.87 1.185-2.726 1.185a2.54 2.54 0 0 1-1.47-.471c-.443-.314-.672-.87-.672-1.656s.215-1.57.628-2.326c-2.426 3.04-4.31 4.553-5.695 4.553a1.7 1.7 0 0 1-1.328-.585c-.342-.386-.5-.785-.5-1.214q0-.62.172-1.284c.114-.443.243-.842.371-1.2.129-.356.328-.784.585-1.298s.457-.885.571-1.128c.115-.242.329-.585.614-1.056.286-.471.643-1.114 1.1-1.913.456-.8.827-1.399 1.127-1.784.3-.386.585-.586.87-.586.286 0 .529.115.743.343s.328.428.328.571q0 .215-.985 1.97c-1.927 3.497-2.897 5.524-2.897 6.11 0 .142.057.213.157.213.47 0 1.641-1.013 3.497-3.04s2.94-3.326 3.24-3.897.571-1.056.857-1.442c.271-.385.485-.628.628-.713.414-.272.956-.414 1.627-.443.114 0 .186 0 .243.014s.128.1.2.243a.9.9 0 0 1 .114.371c-.086.271-.471 1-1.17 2.184-.686 1.185-1.071 1.856-1.143 1.999-1.156 2.383-1.727 3.94-1.727 4.653 0 .414.157.614.471.614.571-.072 1.256-.528 2.056-1.356.3-.3.585-.614.87-.928.286-.314.472-.5.529-.542a.34.34 0 0 1 .257-.1"/><path d="M61.523 21.648c2.298-2.613 4.268-3.926 5.881-3.926.4 0 .728.114.985.357.257.242.386.542.386.928 0 .385-.272 1.013-.814 1.912a31 31 0 0 1-1.499 2.255c-.242.315-.514.472-.828.472a.85.85 0 0 1-.714-.343 1.26 1.26 0 0 1-.257-.785c0-.67.358-1.442 1.086-2.284l-.029-.028c-.328.028-1.114.67-2.398 1.898a95 95 0 0 0-3.255 3.326 52 52 0 0 0-2.912 3.583c-.3.414-.556.628-.77.628-.215 0-.486-.071-.828-.2-.343-.128-.557-.228-.629-.285-.071-.057-.114-.157-.114-.3 0-.128.043-.3.114-.47.072-.186.229-.444.429-.772s.528-.87.956-1.613 1.085-1.87 1.984-3.369 1.428-2.412 1.613-2.726c.371-.642.671-1.113.914-1.399.442-.557 1.185-.828 2.227-.828.228 0 .356.143.356.443 0 .456-.428 1.327-1.27 2.583Z"/><path d="M77.268 18.679c0 .642-.257 1.213-.785 1.698-.528.486-1.113.728-1.784.728-.214 0-.357-.057-.428-.157-.072-.1-.1-.242-.1-.4 0-.156.014-.328.057-.485-.357.114-.743.3-1.17.543-.43.242-.957.6-1.585 1.084-.628.486-.942.828-.942 1.071 0 .071.114.114.342.114s.585-.085 1.056-.242.814-.243 1-.243c.185 0 .314.014.37.028.13.072.258.215.415.443.142.228.214.414.214.542q0 .193-.385.514a2.8 2.8 0 0 1-.856.485q-.494.172-.643.258c-2.056 1.156-3.084 1.94-3.084 2.37 0 .756.643 1.141 1.942 1.141.828 0 1.67-.257 2.498-.785q1.07-.664 1.927-1.37c.57-.457.928-.743 1.085-.857s.27-.157.342-.157q.386 0 .386.857c0 .57-.029.942-.1 1.113-.072.186-.257.4-.586.67-2.084 1.7-4.068 2.556-5.923 2.556-1 0-1.785-.143-2.384-.414-1.1-.5-1.642-1.256-1.642-2.284 0-1.342.928-2.37 2.798-3.055-.371-.17-.614-.37-.714-.642-.114-.257-.157-.67-.157-1.242 0-.57.271-1.17.8-1.813a6.2 6.2 0 0 1 1.956-1.57c1.712-.928 3.254-1.384 4.596-1.384.328 0 .642.07.984.228.343.157.5.371.5.657"/><path d="M110.585 8.744h.185c.058 0 .1 0 .115.014.014.014.028.014.057.028.028 0 .043.015.071.043a.8.8 0 0 0 .2.128q.171.129.171.3 0 .172-.342.728c-.229.372-.814 1.27-1.77 2.727a315 315 0 0 0-5.867 9.307c-2.984 4.967-4.497 7.465-4.525 7.494a.3.3 0 0 0-.057.086c-.015.057-.043.085-.115.085l-.2-.043-.4.1-.228-.043-.242.043h-.086l-.813.114c-.486 0-.728-.17-.728-.5q0-.213.128-.513c.3-.714 1.827-3.297 4.568-7.78a225 225 0 0 1-5.339.071l-3.14-.014c-.514.828-1.228 1.999-2.127 3.526-1.941 3.326-2.97 4.996-3.098 5.025-.128.028-.228.057-.314.057-.085 0-.157-.043-.214-.143-.071-.085-.114-.142-.143-.142a.4.4 0 0 0-.157.057c-.071.043-.185.057-.342.057l-.343-.015-.128-.085q-.022 0-.043.043c-.014.028-.057.043-.114.043-.414 0-.628-.172-.628-.529 0-.228.085-.542.242-.928.172-.385.386-.799.657-1.241s.956-1.514 2.084-3.184q1.67-2.505 1.67-2.526c-.185-.015-.4-.015-.642-.029-.5 0-.842-.014-1.056-.057-.557-.1-.943-.557-1.142-1.37-.115-.4-.157-.657-.143-.785 0-.257.114-.4.342-.4l.386.1c.2.014.656.029 1.399.071.742.043 1.27.057 1.598.057l.828-.028a185 185 0 0 1 4.554-6.752q-1.927 1.584-4.282 1.584c-.743 0-1.385-.17-1.913-.528-.543-.357-.8-.813-.8-1.356 0-.542.2-.97.614-1.299.414-.314.8-.47 1.17-.47q.558 0 .557.17c0 .043-.057.086-.157.129-.1.057-.157.1-.157.143 0 .157.172.3.514.414.343.114.728.185 1.156.185.429 0 .943-.128 1.57-.37.629-.244 1.271-.572 1.942-.957.942-.543 1.684-1 2.227-1.356.314-.157.6-.229.885-.229s.471.029.6.1a.9.9 0 0 1 .271.186c.057.057.128.142.185.242.072.1.129.186.2.229.057.057.1.114.1.185 0 .072-.043.172-.114.329-.072.142-.443.742-1.114 1.784-.67 1.042-1.541 2.37-2.598 3.983a277 277 0 0 0-2.313 3.569c2.613 0 5.425-.044 8.451-.144 3.683-5.81 5.625-8.85 5.824-9.135q.3-.428.557-.557c.171-.086.371-.128.614-.128Z"/><path d="M115.353 18.479c.299 0 .599.128.899.4.314.27.457.67.457 1.213s-.186 1.242-.571 2.112c-.386.857-.9 1.742-1.571 2.641a22.6 22.6 0 0 1-2.184 2.512 11.6 11.6 0 0 1-2.569 1.927c-.928.5-1.756.757-2.512.757s-1.356-.243-1.813-.714q-.685-.706-.685-1.97c0-.842.214-1.784.628-2.797a10 10 0 0 1 1.599-2.712 15.7 15.7 0 0 1 2.126-2.113c1.585-1.285 2.984-1.913 4.183-1.913.542 0 .942.128 1.213.4.1.085.143.17.143.228v.086c.157-.057.371-.057.657-.057m-1.471 1.94h-.1c-.342 0-.514-.242-.514-.741-.713.228-1.455.642-2.241 1.227a10.8 10.8 0 0 0-2.098 2.084c-1.256 1.6-1.884 2.955-1.898 4.054q0 .814.599.814c.4 0 .999-.271 1.784-.785s1.571-1.27 2.356-2.255c.771-.971 1.356-1.828 1.741-2.541s.585-1.2.585-1.47q-.02-.386-.214-.386"/><path d="m116.395 29.713-.714-.029h-.257a1 1 0 0 1-.314-.171c-.114-.086-.2-.157-.257-.186-.057-.028-.086-.114-.086-.214s.043-.285.115-.528c1.898-4.183 3.739-7.537 5.524-10.035.2-.271.514-.486.942-.628a4 4 0 0 1 1.27-.214c.243 0 .371.185.371.57 0 .115-.042.258-.114.429-.071.185-.271.47-.585.885-.314.414-.685.885-1.113 1.399-.429.514-.671.828-.728.913 1.341-1.384 2.54-2.412 3.625-3.097 1.085-.671 1.856-1.014 2.341-1.014s.857.143 1.114.414.385.571.385.885-.028.585-.071.785a2.7 2.7 0 0 1-.243.657c-.114.228-.214.428-.3.585a6 6 0 0 1-.414.628c-.199.257-.328.443-.399.543-.072.1-.229.285-.457.556a7 7 0 0 0-.371.457c.271-.271.656-.67 1.142-1.213a51 51 0 0 1 1.242-1.342c.342-.357.756-.77 1.27-1.228.514-.456.985-.827 1.413-1.099 1.057-.656 2.127-.999 3.212-.999.371 0 .685.114.942.357s.386.514.386.842c0 .329-.4 1.114-1.185 2.341s-1.585 2.47-2.37 3.712-1.185 2.027-1.185 2.355c0 .442.086.714.243.8.171.085.371.113.6.1.228-.015.571-.172.985-.458a8 8 0 0 0 1.127-.885c.543-.485 1.028-.956 1.499-1.413.1-.085.2-.128.328-.128q.279 0 .343.428c.043.286.057.571.057.885s-.028.514-.086.628c-.285.543-.913 1.213-1.87 2.013-.97.785-1.898 1.185-2.783 1.185-.114 0-.186 0-.228-.015-1-.1-1.699-.37-2.085-.828-.385-.456-.571-.999-.571-1.613s.215-1.384.643-2.27c.428-.884.885-1.698 1.399-2.412s.97-1.37 1.399-1.955q.642-.879.642-.942c0-.043-.043-.072-.114-.072-.3 0-.971.485-2.027 1.47-1.785 1.67-3.326 3.284-4.625 4.825-.343.414-1.156 1.442-2.427 3.112-.143.2-.385.3-.699.3s-.643-.057-.985-.186q-.514-.192-.514-.47c0-.1.771-1.471 2.327-4.112s2.326-4.082 2.326-4.31c0-.243-.142-.358-.428-.358-.285 0-.885.429-1.784 1.285-2.47 2.355-4.382 4.71-5.738 7.038q-.129.213-.514.642c-.257.285-.486.4-.571.4"/><path d="M144.701 18.679c0 .642-.257 1.213-.785 1.698-.528.486-1.114.728-1.784.728-.215 0-.357-.057-.429-.157-.071-.1-.1-.242-.1-.4 0-.156.015-.328.057-.485-.356.114-.742.3-1.17.543-.428.242-.956.6-1.584 1.084-.629.486-.943.828-.943 1.071 0 .071.115.114.343.114s.585-.085 1.056-.242.814-.243 1-.243c.185 0 .314.014.371.028.128.072.257.215.414.443.142.228.214.414.214.542q0 .193-.386.514a2.8 2.8 0 0 1-.856.485q-.493.172-.643.258c-2.055 1.156-3.083 1.94-3.083 2.37 0 .756.643 1.141 1.942 1.141.827 0 1.67-.257 2.498-.785q1.07-.664 1.927-1.37c.571-.457.927-.743 1.085-.857s.271-.157.342-.157q.386 0 .386.857c0 .57-.029.942-.1 1.113-.072.186-.257.4-.586.67-2.084 1.7-4.068 2.556-5.924 2.556-.999 0-1.784-.143-2.383-.414-1.1-.5-1.642-1.256-1.642-2.284 0-1.342.928-2.37 2.798-3.055-.371-.17-.614-.37-.714-.642-.114-.257-.157-.67-.157-1.242 0-.57.271-1.17.799-1.813a6.2 6.2 0 0 1 1.956-1.57c1.713-.928 3.255-1.384 4.596-1.384.329 0 .643.07.985.228.343.157.5.371.5.657"/><path d="M0 33.667c3.754 1.57 7.58 2.783 11.477 3.71a87 87 0 0 0 11.748 2.084c1.97.272 3.954.3 5.91.486 1.983.015 3.953.172 5.923.057l2.955-.07c.985-.015 1.97-.144 2.955-.2.985-.086 1.97-.13 2.94-.258l2.927-.414c3.925-.428 7.736-1.341 11.534-2.44 3.84-1.057 7.465-2.456 11.305-3.912 3.925-1.442 8.18-2.384 12.49-1.927 2.127.271 4.268.956 6.01 2.213 1.756 1.241 3.012 3.012 3.811 4.867-1.199-1.656-2.698-3.012-4.425-3.854s-3.626-1.185-5.51-1.128c-3.811.057-7.566 1.328-11.091 2.927a95 95 0 0 1-11.377 4.696c-3.94 1.27-8.008 2.284-12.133 2.798-8.208 1.085-16.616 1.099-24.724-.543-4.068-.742-8.037-1.898-11.876-3.368C7.037 37.863 3.312 36.079 0 33.667"/><path d="M136.507 9.9c-3.183-1.357-6.423-2.413-9.706-3.24-3.269-.871-6.581-1.485-9.907-1.914-1.656-.256-3.34-.314-4.996-.513-1.67-.043-3.326-.215-4.996-.143C106.074 4.104 105.232 4.104 104.404 4.09c-.828 0-1.67.085-2.498.114-.828.057-1.67.071-2.498.157l-2.484.3c-3.326.271-6.552.956-9.778 1.798-3.269.786-6.366 1.899-9.664 3.012-3.383 1.128-7.051 1.813-10.734 1.3-1.813-.3-3.64-.943-5.082-2.085-1.47-1.127-2.47-2.67-3.083-4.282 1.013 1.413 2.27 2.57 3.711 3.283s3.026 1.014 4.61 1c3.198 0 6.367-1.029 9.365-2.313 3.055-1.456 6.41-2.74 9.75-3.797C89.386 1.563 92.898.792 96.41.42c7.009-.742 14.175-.57 21.041 1.057 3.44.728 6.795 1.841 10.006 3.211 3.226 1.4 6.338 3.027 9.05 5.21"/></g><defs><clipPath id="clip0_2_190"><path fill="#fff" d="M0 0h145v45H0Z"/></clipPath></defs></svg>