<svg xmlns="http://www.w3.org/2000/svg" width="103" height="103" fill="none" viewBox="0 0 103 103"><g clip-path="url(#clip0_2_157)"><path fill="#fff" d="M51.16 101.606c27.86 0 50.446-22.585 50.446-50.446S79.021.714 51.16.714.714 23.299.714 51.16s22.585 50.446 50.446 50.446"/><path fill="#292f36" d="M51.16 102.32C22.953 102.32 0 79.366 0 51.16c0-28.207 22.954-51.16 51.16-51.16s51.16 22.954 51.16 51.16-22.954 51.16-51.16 51.16m0-100.893C23.739 1.427 1.427 23.74 1.427 51.16s22.312 49.732 49.733 49.732 49.732-22.31 49.732-49.732c0-27.421-22.31-49.733-49.732-49.733"/><path fill="#292f36" d="M58.354 5.838c.343.029.643.043.885.043l-.028.228c-.4.058-.742.357-1.014.928L54.8 13.832l-.1-.014-.086-.014-2.155-7.58q-.215-.75-.728-.814l.029-.228c.314.057.727.1 1.241.157.671.057 1.17.1 1.5.1l-.03.228q-.45-.021-.642.043c-.128.043-.2.157-.214.3q-.022.192.086.556l1.584 5.796 2.356-4.74c.2-.385.3-.699.328-.927.029-.243-.043-.428-.2-.557-.157-.128-.414-.2-.756-.243l.028-.228c.414.071.857.128 1.313.171"/><path fill="#292f36" d="M67.947 8.85a.4.4 0 0 0-.343.171c-.086.115-.186.3-.285.571l-2.042 5.425c-.1.271-.157.485-.157.628s.043.257.143.342.285.186.542.3l-.085.214a41 41 0 0 0-1.37-.557c-.629-.242-1.1-.4-1.414-.499l.086-.214q.406.128.6.128a.43.43 0 0 0 .343-.171c.085-.114.185-.3.284-.57l2.042-5.425c.1-.271.157-.486.157-.628a.42.42 0 0 0-.143-.343c-.1-.086-.285-.185-.542-.3l.085-.214c.3.129.757.314 1.385.557.585.228 1.056.385 1.399.485l-.086.214c-.257-.085-.457-.128-.6-.114"/><path fill="#292f36" d="M80.651 16.401a.55.55 0 0 0-.414.1c-.128.086-.285.257-.457.5l-4.14 5.61-.213-.157.556-9.022-3.668 4.968a2.8 2.8 0 0 0-.343.6.53.53 0 0 0 .043.442c.071.143.243.3.485.5l-.142.185a21 21 0 0 0-.942-.742c-.372-.271-.671-.486-.9-.614l.143-.186q.342.236.557.257a.55.55 0 0 0 .414-.1c.128-.1.285-.257.456-.5l3.37-4.567c.17-.243.285-.428.327-.557a.43.43 0 0 0-.043-.371c-.07-.114-.213-.257-.442-.442l.143-.186c.185.171.47.4.856.671.286.214.529.385.757.514l-.457 7.565 2.97-4.025c.17-.243.299-.443.342-.6a.6.6 0 0 0-.043-.442c-.071-.143-.243-.314-.485-.5l.142-.185c.215.185.529.428.943.742.37.271.67.485.899.614l-.143.185c-.243-.142-.428-.242-.571-.257"/><path fill="#292f36" d="M85.433 22.84c.371-.272.757-.572 1.17-.943.357.543.986 1.442 1.885 2.712q1.349 1.884 1.927 2.655c-.486.286-.9.543-1.27.8-.315.228-.572.428-.757.585l-.157-.214c.457-.4.77-.728.956-.97.186-.243.257-.5.243-.772-.014-.27-.186-.6-.457-.999l-.371-.514-5.41 3.855c-.257.185-.443.356-.528.485a.5.5 0 0 0-.057.457c.043.157.171.385.356.67l-.185.143a25 25 0 0 0-.97-1.413c-.458-.642-.8-1.1-1.029-1.385l.186-.142c.214.27.385.456.528.556a.5.5 0 0 0 .442.086c.158-.043.372-.157.629-.343l5.41-3.854-.371-.514c-.286-.4-.543-.642-.785-.756a1.03 1.03 0 0 0-.8-.029c-.285.1-.7.286-1.227.586l-.157-.215c.214-.114.47-.285.799-.528"/><path fill="#292f36" d="m88.174 42.652-.229.072c-.085-.314-.2-.714-.37-1.2q-.322-.941-.515-1.413l.229-.071c.1.271.214.471.3.571.1.1.228.129.37.071q.193-.064.472-.3l1.584-1.298-.9-2.67-1.327-.057q-.642-.042-.985.086c-.228.086-.37.214-.428.4-.043.185-.014.456.086.785l-.229.071c-.114-.428-.257-.856-.4-1.285a9 9 0 0 0-.314-.814l.229-.07c.2.342.628.527 1.256.542l7.594.342.057.172-6.052 5.038c-.371.357-.514.686-.428 1.028m4.953-6.066-3.74-.157.842 2.512Z"/><path fill="#292f36" d="M89.216 53.572c.143-.057.214-.128.214-.228 0-.057-.014-.1-.043-.143a5 5 0 0 0-.171-.243 3.4 3.4 0 0 1-.485-.842 2.6 2.6 0 0 1-.171-.97c-.015-.8.142-1.485.456-2.07a3.2 3.2 0 0 1 1.413-1.342c.614-.314 1.356-.471 2.227-.485.9-.015 1.684.128 2.355.442s1.2.743 1.57 1.313a3.47 3.47 0 0 1 .571 1.927c0 .315-.028.6-.085.843a2.6 2.6 0 0 1-.243.642c-.1.186-.228.4-.4.628-.07.1-.114.186-.114.243 0 .143.243.243.714.285v.271C96.524 53.816 95.625 53.816 94.34 53.844v-.271a8 8 0 0 0 1.028-.243c.271-.086.5-.214.7-.371.27-.229.5-.529.656-.9.157-.37.229-.742.229-1.142a2.03 2.03 0 0 0-.528-1.342c-.343-.385-.828-.67-1.442-.885-.628-.2-1.342-.3-2.17-.285-.942.014-1.699.128-2.298.343-.6.214-1.028.528-1.313.942-.286.414-.414.942-.4 1.584.014.471.143.87.385 1.213.1.143.186.229.286.272.085.043.214.057.37.057l1.129-.014c.328 0 .556-.043.713-.1a.49.49 0 0 0 .3-.343c.057-.157.086-.414.086-.757h.228c-.014.386-.028.928-.014 1.656.014.543.028.957.057 1.214h-.228a.9.9 0 0 0-.1-.385c-.043-.072-.143-.13-.271-.158-.129-.028-.343-.043-.643-.028l-2.312.042v-.228c.128-.057.285-.086.428-.143"/><path fill="#292f36" d="M87.517 65.72c-.414-.129-.9-.257-1.456-.371.186-.5.457-1.342.842-2.541.457-1.428.785-2.512.985-3.24l.229.071c-.072.271-.1.471-.1.614a.43.43 0 0 0 .186.328c.113.086.313.171.584.257l5.525 1.742c.285.085.485.128.628.128a.4.4 0 0 0 .343-.171c.085-.114.17-.3.27-.557l.229.071c-.257.728-.6 1.799-1.056 3.226-.343 1.085-.586 1.87-.7 2.341-.47-.2-.9-.37-1.299-.485a7 7 0 0 0-.7-.186l.086-.256c.5.1.886.142 1.142.142a.87.87 0 0 0 .642-.257c.172-.157.315-.442.443-.827l.286-.928c.085-.272.128-.471.114-.6a.44.44 0 0 0-.171-.328c-.115-.086-.3-.172-.586-.257l-2.626-.828-.228.742c-.115.371-.086.657.1.857.185.2.385.342.613.442.229.1.371.171.428.2l-.085.257c-.357-.143-.7-.271-1.042-.371l-.528-.157a22 22 0 0 0-1.599-.428l.085-.257c.058.014.243.042.557.114.314.057.585.028.8-.086.214-.114.356-.328.456-.628l.229-.742-2.684-.842c-.285-.086-.485-.129-.628-.129a.37.37 0 0 0-.328.171c-.086.115-.171.3-.257.572l-.257.813c-.143.471-.2.842-.143 1.114.043.285.186.513.428.713.243.186.614.4 1.114.628l-.086.257c-.171-.128-.442-.214-.785-.328"/><path fill="#292f36" d="M83.449 83.235a.46.46 0 0 0-.014-.385c-.057-.13-.2-.286-.414-.5l-4.197-4.011q-.32-.3-.514-.386a.46.46 0 0 0-.385 0c-.129.057-.286.186-.486.386l-.17-.157c.27-.243.613-.6 1.055-1.042.457-.486.8-.857 1.014-1.1l.171.157c-.185.215-.3.386-.357.5a.46.46 0 0 0 .014.385c.058.129.2.286.415.5l4.196 4.011q.322.3.514.386a.46.46 0 0 0 .385 0c.129-.057.286-.186.486-.386l.171.157c-.242.214-.6.571-1.056 1.057-.443.456-.771.828-1 1.099l-.17-.157q.256-.322.342-.514"/><path fill="#292f36" d="M71.558 91.942a.52.52 0 0 0 .071-.414c-.028-.157-.128-.357-.285-.628l-3.54-6.01.228-.142 8.08 4.04-3.126-5.31c-.157-.257-.286-.443-.414-.543a.6.6 0 0 0-.428-.129c-.158.015-.372.1-.643.243l-.128-.2c.256-.114.6-.314 1.042-.57.4-.243.7-.429.913-.586l.114.2c-.228.143-.385.285-.456.414a.52.52 0 0 0-.071.414c.028.157.128.357.285.628l2.883 4.896q.214.385.386.514c.114.086.228.129.37.1.13-.029.329-.1.572-.228l.114.2c-.229.114-.543.285-.957.528-.3.17-.556.342-.77.485l-6.78-3.383 2.54 4.31c.157.258.286.443.414.543q.171.15.428.129c.172-.015.386-.1.657-.243l.114.2c-.257.114-.6.314-1.042.57-.4.243-.7.429-.913.586l-.115-.2c.215-.157.371-.3.457-.414"/><path fill="#292f36" d="M63.707 93.812c.1.443.229.928.4 1.442-.642.114-1.713.343-3.226.657-1.513.328-2.57.57-3.198.728a16 16 0 0 0-.243-1.484c-.085-.386-.156-.7-.242-.929l.257-.057c.186.585.357 1 .514 1.27.157.272.357.443.614.529.257.085.628.071 1.099-.029l.614-.128-1.4-6.495c-.07-.314-.142-.543-.242-.671-.1-.129-.214-.214-.385-.228-.172-.029-.429 0-.771.057l-.043-.229c.4-.057.97-.171 1.684-.328.757-.171 1.328-.3 1.685-.4l.043.229c-.343.085-.571.171-.714.257a.53.53 0 0 0-.257.371c-.029.157-.014.4.057.714l1.399 6.494.614-.128c.47-.1.813-.243 1.013-.428q.3-.28.343-.728c.028-.3.014-.757-.057-1.356l.257-.057c.042.228.1.542.185.927"/><path fill="#292f36" d="M44.765 89.801c.043-.442.057-.942.057-1.499.528.072 1.413.157 2.67.271 1.484.129 2.611.229 3.382.272l-.014.228c-.285-.014-.485 0-.614.043a.44.44 0 0 0-.285.243c-.057.128-.1.342-.129.628l-.514 5.78c-.028.286-.014.5.015.643a.4.4 0 0 0 .243.3c.128.057.328.114.599.143l-.014.228c-.757-.086-1.885-.2-3.37-.328a90 90 0 0 0-2.441-.186c.1-.5.172-.956.2-1.37.03-.3.044-.543.03-.728l.27.028c.015.514.043.885.115 1.142a.87.87 0 0 0 .385.57c.186.13.5.215.9.244l.97.086c.285.028.485.014.614-.015a.4.4 0 0 0 .286-.243c.056-.128.1-.342.128-.627l.242-2.741-.77-.072c-.386-.028-.657.058-.814.286-.143.228-.257.457-.3.7-.057.242-.085.4-.1.47l-.27-.028c.056-.385.099-.742.142-1.1l.043-.556c.028-.4.057-.942.085-1.656l.272.029c0 .057.014.242.014.57.014.33.085.586.257.757.157.186.4.286.713.314l.771.072.243-2.798c.028-.285.014-.5-.014-.642a.4.4 0 0 0-.243-.285q-.192-.086-.6-.13l-.856-.07c-.485-.043-.857-.015-1.128.1-.257.1-.457.299-.6.57-.142.271-.256.685-.37 1.228l-.272-.029c0-.214.029-.5.072-.842"/><path fill="#292f36" d="M33.53 84.505c.215-.042.457 0 .715.115.3.128.5.314.613.556.114.257.129.614.057 1.085l-.214 1.17a9 9 0 0 0-.129.97c-.014.23.044.444.143.63.1.185.286.328.557.442l1.028.428 1.042-2.484c.114-.27.171-.47.186-.614a.43.43 0 0 0-.143-.357c-.1-.1-.271-.2-.528-.313l.085-.215c.329.157.771.357 1.356.6.614.257 1.085.443 1.4.543l-.086.214a2.7 2.7 0 0 0-.6-.157c-.143 0-.257.042-.342.157-.1.1-.2.285-.314.556l-2.242 5.353c-.114.272-.17.471-.185.614a.43.43 0 0 0 .143.357c.1.1.27.2.528.328l-.086.214c-.3-.142-.728-.342-1.299-.585-.285-.114-.585-.243-.928-.385-.342-.143-.57-.229-.7-.286-.556-.243-.998-.514-1.327-.842s-.514-.67-.6-1.042a1.68 1.68 0 0 1 .114-1.085q.172-.428.558-.77c.257-.23.585-.4.985-.486s.885-.071 1.413.057l-.129-.071c-.3-.186-.528-.371-.67-.571a1.3 1.3 0 0 1-.271-.628c-.044-.229-.03-.514.028-.857l.2-1.213c.042-.243.071-.428.071-.571a.8.8 0 0 0-.057-.343.35.35 0 0 0-.214-.186.45.45 0 0 0-.328-.029c-.1.03-.243.101-.429.2l-.114-.185c.257-.157.5-.27.714-.314m.715 5.082a1.36 1.36 0 0 0-.828.385c-.215.215-.4.5-.557.871-.243.585-.3 1.1-.143 1.513.157.414.543.757 1.185 1.028.228.1.4.143.542.129a.45.45 0 0 0 .343-.171q.15-.172.3-.557l1.113-2.656-.728-.3c-.471-.2-.885-.285-1.227-.242"/><path fill="#292f36" d="M22.397 86.447a.43.43 0 0 0 .371-.057c.114-.072.271-.229.456-.457l3.583-4.568c.186-.228.3-.414.343-.542a.43.43 0 0 0-.043-.371c-.071-.115-.214-.272-.428-.457l.143-.186c.27.243.642.557 1.142.942q.792.621 1.199.9l-.143.185c-.228-.171-.414-.271-.542-.3a.39.39 0 0 0-.371.057c-.115.072-.272.229-.457.457l-3.583 4.568c-.186.228-.3.414-.343.542a.43.43 0 0 0 .043.371c.071.115.214.272.428.457l-.143.186a43 43 0 0 0-1.156-.956c-.5-.386-.9-.686-1.185-.886l.143-.185c.243.157.414.257.543.3"/><path fill="#292f36" d="M13.175 76.283c-.057-.642.086-1.284.414-1.898.343-.628.857-1.185 1.57-1.713.7-.5 1.4-.828 2.127-.957.728-.128 1.4-.085 2.027.157a3.4 3.4 0 0 1 1.57 1.242c.443.6.686 1.228.743 1.87s-.086 1.285-.414 1.899c-.343.628-.857 1.185-1.57 1.713-.7.5-1.4.828-2.127.956-.714.128-1.4.086-2.027-.157a3.46 3.46 0 0 1-1.57-1.228c-.443-.613-.685-1.241-.743-1.884m2.141 2.541c.5.1 1.071.057 1.7-.143.627-.2 1.255-.528 1.912-1.013.657-.471 1.17-.985 1.527-1.528.372-.542.571-1.084.6-1.598a2 2 0 0 0-.357-1.356 1.9 1.9 0 0 0-1.199-.756c-.5-.1-1.07-.058-1.699.142-.628.2-1.256.528-1.913.999-.656.471-1.17.985-1.527 1.542-.371.542-.57 1.07-.614 1.598-.043.514.086.971.357 1.356.3.4.7.657 1.213.757"/><path fill="#292f36" d="M14.275 59.097c.17.128.3.342.385.628.1.3.085.585-.029.828-.114.257-.385.5-.799.742l-1.042.585a9 9 0 0 0-.814.528 1.1 1.1 0 0 0-.385.514c-.071.2-.071.428.014.714l.329 1.07 2.569-.799c.285-.086.47-.171.585-.257a.46.46 0 0 0 .186-.328c.014-.129-.029-.343-.1-.614l.228-.071c.086.342.214.828.414 1.427q.3.964.471 1.413l-.228.072c-.1-.272-.186-.457-.271-.557a.45.45 0 0 0-.343-.171c-.143 0-.357.028-.628.128l-5.539 1.713c-.285.086-.47.171-.585.257a.46.46 0 0 0-.186.328c-.014.143.03.343.1.614l-.228.072q-.107-.472-.385-1.37c-.086-.286-.2-.615-.314-.957-.115-.343-.2-.586-.243-.714-.186-.585-.243-1.1-.2-1.556.043-.457.186-.828.414-1.128s.528-.5.9-.613c.285-.086.599-.115.942-.072s.67.186 1.013.443.628.628.87 1.127l-.013-.142c-.043-.357-.058-.643 0-.885.057-.243.157-.443.3-.614.156-.171.385-.357.684-.528l1.057-.628c.214-.115.385-.229.485-.315a.9.9 0 0 0 .228-.257.4.4 0 0 0 .014-.285.5.5 0 0 0-.186-.271 2 2 0 0 0-.428-.2l.072-.214c.286.1.528.214.685.343m-3.412 3.825a1.4 1.4 0 0 0-.828-.385c-.3-.029-.642.014-1.028.142-.614.186-1.028.486-1.256.871-.228.386-.228.914-.029 1.556.072.229.157.4.243.5s.214.157.357.157.357-.043.614-.115l2.74-.856-.228-.757c-.143-.513-.343-.884-.585-1.113"/><path fill="#292f36" d="M13.175 45.55c.543-.242.871-.7 1.014-1.384a1.7 1.7 0 0 0-.029-.757 1.4 1.4 0 0 0-.4-.642c-.2-.186-.47-.314-.827-.372-.3-.057-.571-.028-.828.072s-.514.257-.757.471-.528.5-.842.856c-.357.4-.67.728-.942.957a2.9 2.9 0 0 1-.9.543c-.328.128-.699.142-1.113.07-.428-.085-.785-.242-1.042-.499a1.9 1.9 0 0 1-.528-.914 2.7 2.7 0 0 1-.014-1.128c.042-.242.1-.428.171-.599s.143-.3.228-.4.172-.214.286-.328c.143-.157.214-.271.243-.357.014-.071-.015-.128-.086-.185-.072-.057-.2-.1-.371-.157l.043-.257c.442.114 1.213.285 2.34.5l-.042.256c-.4-.042-.771-.028-1.142.057a1.86 1.86 0 0 0-.928.471c-.257.229-.428.557-.5.957a1.5 1.5 0 0 0 .029.757c.071.242.2.428.371.585.186.157.4.257.657.314.414.071.77.014 1.07-.186s.585-.457.857-.756c.27-.3.442-.5.542-.6.4-.428.728-.756 1-1a2.6 2.6 0 0 1 .9-.528c.327-.113.684-.128 1.07-.056.47.085.856.27 1.141.542.286.286.471.614.571 1.014s.1.828.014 1.284c-.07.371-.157.657-.285.885a2.7 2.7 0 0 1-.443.614c-.142.157-.214.271-.242.357-.014.071.014.129.085.186s.2.114.372.157l-.043.256q-.621-.171-2.741-.556l.043-.257c.8.071 1.456 0 1.998-.243"/><path fill="#292f36" d="M10.349 33.517c-.4-.215-.857-.414-1.37-.614.314-.557.842-1.528 1.555-2.912.714-1.37 1.214-2.341 1.485-2.927.471.3.9.557 1.285.757.342.186.642.314.87.414l-.128.243c-.571-.229-1-.372-1.299-.414-.3-.057-.571 0-.8.142-.228.143-.456.429-.67.857l-.286.57 5.896 3.07c.285.157.514.228.67.243.158.014.3-.029.429-.143.128-.114.271-.328.442-.628l.214.114a31 31 0 0 0-.828 1.513 50 50 0 0 0-.77 1.542l-.215-.114c.143-.315.243-.557.258-.714a.5.5 0 0 0-.129-.442c-.114-.13-.3-.258-.585-.415l-5.896-3.083-.3.557c-.228.428-.328.77-.313 1.042q.021.407.342.728c.214.214.571.5 1.085.828l-.129.242a19 19 0 0 0-.814-.457"/><path fill="#292f36" d="M20.427 17.115c.242-.242.442-.47.585-.642l.171.171a.86.86 0 0 0-.114.528c.014.215.072.514.186.871l1.299 3.869 1.513 1.498c.214.2.37.343.5.4a.46.46 0 0 0 .385 0c.128-.057.285-.186.5-.371l.17.171q-.405.364-1.07 1.028a25 25 0 0 0-1.028 1.085l-.17-.171c.185-.215.313-.372.37-.5a.41.41 0 0 0-.014-.385c-.057-.129-.2-.3-.4-.5l-1.256-1.242-4.768-1.399c-.285-.086-.5-.114-.642-.1a.5.5 0 0 0-.314.128l-.171-.17c.228-.2.485-.429.742-.7.528-.543.913-.928 1.128-1.185l.171.171q-.578.579-.257.9c.086.085.2.142.371.2l4.011 1.241-1.056-3.154c-.157-.457-.314-.771-.485-.928-.157-.157-.329-.2-.514-.143-.186.057-.4.2-.657.443l-.171-.172c.342-.314.657-.628.985-.942"/><path fill="#292f36" d="M29.063 11.363a.43.43 0 0 0-.1.371c.028.142.1.342.242.6l2.756 5.11c.142.256.256.428.37.528.1.1.229.128.357.114.129-.014.329-.1.572-.229l.756-.413c.428-.229.728-.472.885-.714.157-.243.214-.514.171-.843s-.17-.742-.4-1.284l.243-.129q.15.343.429.857c.214.385.47.814.785 1.285-.471.228-1.27.642-2.37 1.241-1.313.714-2.312 1.257-2.969 1.642l-.114-.2c.243-.143.414-.271.5-.371a.43.43 0 0 0 .1-.371 2.2 2.2 0 0 0-.243-.6l-2.784-5.11c-.143-.257-.257-.428-.371-.528a.42.42 0 0 0-.357-.114c-.143.014-.328.085-.585.214l-.1-.214q.45-.193 1.328-.685.834-.45 1.284-.729l.114.2a2.5 2.5 0 0 0-.5.371"/><path fill="#292f36" d="M46.45 12.276c.085.428.213.914.37 1.456-.528.086-1.399.243-2.626.486-1.47.285-2.57.513-3.326.685l-.043-.229c.271-.071.471-.128.585-.214a.42.42 0 0 0 .2-.314c.014-.143 0-.357-.057-.642L40.44 7.808c-.057-.285-.115-.485-.2-.614-.086-.128-.172-.2-.314-.214-.129-.028-.343-.014-.614.029l-.043-.229c.757-.128 1.87-.328 3.326-.613 1.128-.229 1.927-.386 2.384-.5.043.514.114.97.185 1.37.057.3.115.529.172.7l-.257.057q-.236-.728-.428-1.07a.93.93 0 0 0-.528-.443c-.229-.072-.529-.072-.943.014l-.956.186c-.271.057-.471.114-.585.185a.45.45 0 0 0-.214.314c-.015.143 0 .357.057.643l.528 2.712.756-.157c.386-.072.614-.243.7-.5.085-.257.114-.5.1-.742-.015-.243-.029-.4-.029-.471l.257-.057c.043.385.1.742.171 1.085l.115.542c.07.386.2.928.385 1.613l-.257.057c-.014-.057-.071-.228-.171-.542s-.243-.528-.457-.657c-.214-.128-.457-.157-.77-.1l-.757.143.542 2.755c.057.285.114.485.186.614a.45.45 0 0 0 .314.214c.128.014.342 0 .613-.057l.843-.172c.47-.1.828-.228 1.056-.4.228-.17.357-.413.414-.713s.057-.728.014-1.285l.257-.057c.043.214.086.486.157.828"/><path fill="#292f36" stroke="#fff" stroke-miterlimit="10" d="M36.828 66.79a17 17 0 0 1-1.727-2.926 20 20 0 0 1-1.199-3.269c-.657-4.896-.67-9.65-.057-14.26a85 85 0 0 1 2.983-13.632c.229-.5.728-.743 1.5-.743.77 0 1.526.172 2.297.514.771.343 1.4.8 1.899 1.37.5.572.614 1.171.343 1.785-.429.914-.843 2.156-1.257 3.697a82 82 0 0 0-1.199 5.139 93 93 0 0 0-1 5.881 85 85 0 0 0-.628 5.881c-.127 1.87-.156 3.569-.085 5.082.072 1.513.3 2.712.685 3.583a78 78 0 0 0 4.939-7.494 130 130 0 0 0 4.211-7.865 180 180 0 0 0 3.754-8.065c1.185-2.713 2.356-5.396 3.498-8.037a105 105 0 0 0 1.699-4.24c.556-1.499 1.284-2.769 2.212-3.84.386-.342.685-.456.885-.342.214.114.357.328.428.657.072.328.115.67.115 1.027v.828q-.408 2.633-.686 5.225a20.6 20.6 0 0 1-1.199 4.996 345 345 0 0 1-3.07 7.523 137 137 0 0 1-3.383 7.351 93 93 0 0 1-3.897 7.023 62 62 0 0 1-4.568 6.51c-1.297 1.64-2.596 2.511-3.867 2.611-1.328.114-2.512-.556-3.626-1.97Z"/><path fill="#292f36" stroke="#fff" stroke-miterlimit="10" d="M60.467 60.31c-.77-1.07-1.527-2.156-2.27-3.27a6.45 6.45 0 0 1-1.113-3.669c0-1.483.428-2.896 1.285-4.224.856-1.313 1.841-2.384 2.955-3.183.456-.3.927-.557 1.398-.742.471-.186.985-.172 1.528.057.228.114.47.2.713.257s.472.128.657.2c.186.07.4.185.628.342.229.157.343.357.343.628q0 1.605.086 2.612c.057.671.142 1.242.256 1.728.115.485.229.899.343 1.256.114.37.228.756.343 1.17.071.386.057.714-.058.971-.114.271-.4.3-.856.114-.842-.3-1.47-.913-1.87-1.841s-.7-1.756-.885-2.527a7 7 0 0 0-.286-.8 9 9 0 0 1-.285-.8c-.3-.07-.67.03-1.085.315s-.8.686-1.113 1.171c-.328.5-.543 1.07-.628 1.727-.1.657.028 1.3.37 1.956.158.228.372.514.657.828.286.328.571.656.857.999.285.343.57.685.856 1 .286.313.529.584.714.77.228.228.385.357.457.371.071.014.271-.028.57-.143.386-.185.972-.442 1.757-.742s1.613-.614 2.47-.913c.856-.3 1.684-.557 2.469-.771s1.384-.314 1.813-.314c.27 0 .456.1.57.285.115.114.1.271-.057.457a4 4 0 0 1-.6.571 9 9 0 0 1-.77.514c-.271.157-.443.242-.514.285-.656.386-1.47.814-2.47 1.3-.998.47-1.855.941-2.583 1.398-.071.072-.214.157-.428.229a2.2 2.2 0 0 0-.485.228c.456 1.028.784 1.927.97 2.67s.257 1.455.2 2.155a9.5 9.5 0 0 1-.428 2.098 35 35 0 0 1-.914 2.44 52 52 0 0 1-1.642 2.527c-.556.8-1.17 1.528-1.87 2.185a8.3 8.3 0 0 1-2.241 1.542c-.799.385-1.684.57-2.64.57a6.2 6.2 0 0 1-1.556-.2c-.5-.128-.914-.413-1.256-.828-.885-.956-1.37-1.998-1.485-3.126a9.2 9.2 0 0 1 .285-3.355 10 10 0 0 1 .856-1.898c.843-1.456 1.771-2.683 2.785-3.697 1.027-.999 2.084-1.97 3.197-2.883Zm1.956 2.584c-.429.428-1 1.027-1.728 1.812a24 24 0 0 0-2.041 2.555 17 17 0 0 0-1.542 2.726c-.4.9-.5 1.671-.314 2.328.771-.343 1.556-.914 2.356-1.699s1.513-1.642 2.127-2.584q.921-1.413 1.284-2.783c.243-.928.2-1.713-.142-2.355Z"/><path fill="#292f36" d="M51.16 83.549c-17.857 0-32.389-14.532-32.389-32.39 0-17.857 14.532-32.388 32.389-32.388S83.549 33.302 83.549 51.16c0 17.857-14.532 32.389-32.39 32.389m0-63.35c-17.072 0-30.962 13.888-30.962 30.96s13.89 30.962 30.962 30.962S82.12 68.232 82.12 51.16 68.232 20.198 51.16 20.198"/></g><defs><clipPath id="clip0_2_157"><path fill="#fff" d="M0 0h103v103H0Z"/></clipPath></defs></svg>