<!-- Generated by IcoMoon.io -->
<svg version="1.1" xmlns="http://www.w3.org/2000/svg" width="1024" height="1024" viewBox="0 0 1024 1024">
<g id="icomoon-ignore">
</g>
<path fill="none" stroke-linejoin="miter" stroke-linecap="butt" stroke-miterlimit="10" stroke-width="60.2353" stroke="#000" d="M963.801 785.315c-36.792-37.066-125.895-91.157-169.126-112.959-56.299-28.356-60.934-30.672-105.183 2.202-29.515 21.938-49.14 41.538-83.682 34.171-34.545-7.367-109.61-48.905-175.336-114.42-65.729-65.515-109.679-142.752-117.067-177.176-7.391-34.424 12.532-53.817 34.265-83.399 30.627-41.7 28.311-48.65 2.129-104.945-20.411-43.784-76.082-132.049-113.29-168.652-39.803-39.313-39.803-32.363-65.449-21.707-20.88 8.784-40.911 19.462-59.843 31.9-37.069 24.626-57.642 45.082-72.029 75.824s-20.851 102.813 53.449 237.779c74.3 134.969 126.428 203.981 234.322 311.567 107.893 107.583 190.856 165.43 312.142 233.448 150.034 84.025 207.583 67.644 238.42 53.281s51.387-34.75 76.062-71.816c12.469-18.899 23.173-38.906 31.97-59.768 10.68-25.552 17.631-25.552-21.754-65.331z"></path>
</svg>
